<svg width="41" height="35" viewBox="0 0 41 35" fill="none" xmlns="http://www.w3.org/2000/svg">
<path fill-rule="evenodd" clip-rule="evenodd" d="M36.5338 0.564947C37.028 0.356929 37.569 0.285185 38.1003 0.357182C38.6317 0.429178 39.1341 0.642284 39.5552 0.974318C39.9762 1.30635 40.3006 1.74517 40.4945 2.24511C40.6884 2.74505 40.7448 3.28783 40.6578 3.81695L36.1218 31.3309C35.6818 33.9849 32.7698 35.5069 30.3358 34.1849C28.2998 33.0789 25.2758 31.3749 22.5558 29.5969C21.1958 28.7069 17.0298 25.8569 17.5418 23.8289C17.9818 22.0949 24.9818 15.5789 28.9818 11.7049C30.5518 10.1829 29.8358 9.30495 27.9818 10.7049C23.3778 14.1809 15.9858 19.4669 13.5418 20.9549C11.3858 22.2669 10.2618 22.4909 8.91778 22.2669C6.46578 21.8589 4.19178 21.2269 2.33578 20.4569C-0.172224 19.417 -0.0502242 15.9689 2.33378 14.9649L36.5338 0.564947Z" fill="#0000B1"/>
</svg>
