<svg width="49" height="43" viewBox="0 0 49 43" fill="none" xmlns="http://www.w3.org/2000/svg">
<path d="M41.3116 3.57345C38.2715 1.90763 34.98 0.698569 31.5513 0C31.491 0.00100945 31.4335 0.0299815 31.3913 0.0806047C30.9799 0.96725 30.4998 2.12258 30.1798 3.00922C26.5431 2.36479 22.8448 2.36479 19.2081 3.00922C18.8881 2.09571 18.4081 0.96725 17.9738 0.0806047C17.9509 0.0268686 17.8824 0 17.8138 0C14.3851 0.698569 11.1165 1.90763 8.05352 3.57345C8.03066 3.57345 8.0078 3.60032 7.98494 3.62719C1.76763 14.5625 0.0532957 25.2022 0.899033 35.7345C0.899033 35.7882 0.921891 35.842 0.967606 35.8688C5.08201 39.4154 9.0364 41.5649 12.9451 42.9889C13.0137 43.0157 13.0822 42.9889 13.1051 42.9351C14.0194 41.4574 14.8423 39.899 15.5509 38.2601C15.5966 38.1526 15.5509 38.0451 15.4594 38.0183C14.1565 37.4272 12.9222 36.7286 11.7108 35.9226C11.6193 35.8688 11.6193 35.7076 11.6879 35.627C11.9393 35.4121 12.1908 35.1703 12.4422 34.9553C12.4879 34.9016 12.5565 34.9016 12.6022 34.9285C20.4653 39.1467 28.9455 39.1467 36.7172 34.9285C36.7629 34.9016 36.8314 34.9016 36.8772 34.9553C37.1286 35.1971 37.38 35.4121 37.6315 35.6539C37.7229 35.7345 37.7229 35.8957 37.6086 35.9494C36.42 36.7823 35.1628 37.4541 33.8599 38.0451C33.7685 38.072 33.7457 38.2064 33.7685 38.287C34.5 39.9259 35.3228 41.4843 36.2143 42.962C36.2829 42.9889 36.3514 43.0157 36.42 42.9889C40.3515 41.5649 44.3059 39.4154 48.4203 35.8688C48.466 35.842 48.4889 35.7882 48.4889 35.7345C49.4947 23.5633 46.8203 13.0041 41.403 3.62719C41.3801 3.60032 41.3573 3.57345 41.3116 3.57345ZM16.7395 29.313C14.3851 29.313 12.4194 26.7606 12.4194 23.617C12.4194 20.4734 14.3394 17.921 16.7395 17.921C19.1624 17.921 21.0824 20.5003 21.0596 23.617C21.0596 26.7606 19.1395 29.313 16.7395 29.313ZM32.6713 29.313C30.317 29.313 28.3512 26.7606 28.3512 23.617C28.3512 20.4734 30.2713 17.921 32.6713 17.921C35.0943 17.921 37.0143 20.5003 36.9915 23.617C36.9915 26.7606 35.0943 29.313 32.6713 29.313Z" fill="#0000B1"/>
</svg>
